<?xml version="1.0" standalone="no"?>
<!DOCTYPE svg PUBLIC "-//W3C//DTD SVG 20010904//EN"
 "http://www.w3.org/TR/2001/REC-SVG-20010904/DTD/svg10.dtd">
<svg version="1.0" xmlns="http://www.w3.org/2000/svg"
 width="1182.000000pt" height="1182.000000pt" viewBox="0 0 1182.000000 1182.000000"
 preserveAspectRatio="xMidYMid meet">
<metadata>
Created by potrace 1.11, written by Peter Selinger 2001-2013
</metadata>
<g transform="translate(0.000000,1182.000000) scale(0.100000,-0.100000)"
fill="#000000" stroke="none">
<path d="M3435 11124 c-794 -65 -1421 -319 -1846 -747 -353 -355 -554 -783
-621 -1317 -19 -157 -16 -621 5 -785 92 -694 415 -1229 957 -1585 120 -78 363
-198 500 -245 359 -124 718 -183 1170 -192 548 -11 1058 48 1408 164 139 45
284 113 278 128 -2 7 -57 174 -121 371 -65 198 -119 361 -121 363 -2 2 -50
-14 -106 -36 -302 -119 -581 -165 -998 -166 -282 -1 -402 11 -604 62 -555 140
-927 502 -1061 1031 -88 349 -80 805 20 1155 29 98 114 286 166 362 126 186
291 329 507 438 304 153 626 202 1159 176 345 -17 569 -49 756 -108 44 -13 80
-23 82 -21 1 2 55 176 119 387 86 287 113 387 104 392 -64 40 -532 127 -858
159 -105 11 -801 21 -895 14z"/>
<path d="M8895 11119 c-352 -25 -762 -111 -1026 -214 -572 -224 -988 -597
-1239 -1110 -138 -281 -199 -541 -220 -935 -26 -505 53 -965 230 -1325 298
-606 802 -993 1523 -1170 327 -79 589 -108 987 -109 550 0 1057 67 1360 180
103 39 220 96 220 108 0 17 -231 720 -239 729 -4 4 -32 -3 -62 -17 -146 -64
-407 -134 -609 -162 -147 -21 -556 -30 -703 -15 -342 33 -637 136 -871 303
-110 78 -260 233 -331 342 -184 282 -265 622 -252 1050 16 499 141 843 401
1101 240 237 565 381 958 424 122 14 488 14 678 1 258 -18 511 -61 655 -110
42 -15 57 -16 61 -7 2 7 56 181 118 387 78 258 110 377 102 381 -47 26 -438
105 -665 133 -280 36 -823 54 -1076 35z"/>
<path d="M2369 5480 c-371 -15 -687 -40 -1036 -81 l-183 -22 0 -2324 0 -2323
595 0 595 0 0 811 0 811 23 -5 c60 -15 504 -29 732 -23 617 15 1070 109 1448
300 282 143 493 322 642 546 152 227 209 436 209 765 0 276 -35 448 -129 635
-120 239 -361 467 -647 611 -402 203 -918 293 -1728 303 -173 3 -407 1 -521
-4z m961 -805 c418 -66 683 -235 779 -498 24 -68 26 -83 26 -242 -1 -157 -3
-176 -28 -250 -88 -264 -314 -434 -682 -515 -184 -40 -376 -52 -700 -46 -165
3 -318 9 -340 13 l-40 8 -3 762 -2 762 52 6 c240 29 758 29 938 0z"/>
<path d="M7095 3208 c-577 -1239 -1072 -2304 -1101 -2365 l-53 -113 598 0 598
0 230 518 230 517 943 0 943 0 242 -515 242 -515 628 -3 c595 -2 627 -1 621
15 -4 10 -498 1074 -1099 2365 l-1092 2348 -441 0 -440 0 -1049 -2252z m1494
1058 c5 -19 46 -187 92 -373 l83 -337 226 -521 227 -520 -650 -3 c-358 -1
-652 0 -654 2 -3 2 95 236 217 520 l221 516 90 367 c50 202 93 371 95 375 3 4
14 8 24 8 13 0 22 -11 29 -34z"/>
</g>
</svg>
